<mxfile host="65bd71144e" modified="2021-01-12T08:24:53.474Z" agent="5.0 (Windows NT 10.0; Win64; x64) AppleWebKit/537.36 (KHTML, like Gecko) Code/1.52.1 Chrome/83.0.4103.122 Electron/9.3.5 Safari/537.36" etag="ZevDJaJxKM0l1e1NCX4S" version="13.10.0" type="embed">
    <diagram id="-0s2P20uroi0EVau9qgd" name="Page-1">
        <mxGraphModel dx="1199" dy="1759" grid="1" gridSize="10" guides="1" tooltips="1" connect="1" arrows="1" fold="1" page="1" pageScale="1" pageWidth="850" pageHeight="1100" math="0" shadow="0">
            <root>
                <mxCell id="0"/>
                <mxCell id="1" parent="0"/>
                <mxCell id="TSie4cTHzgcR8lznAA3S-28" value="" style="rounded=1;whiteSpace=wrap;html=1;fillColor=#f8cecc;strokeColor=#b85450;strokeWidth=2;" parent="1" vertex="1">
                    <mxGeometry x="285" y="-230" width="200" height="190" as="geometry"/>
                </mxCell>
                <mxCell id="TSie4cTHzgcR8lznAA3S-13" value="" style="rounded=1;whiteSpace=wrap;html=1;fillColor=#f5f5f5;strokeColor=#666666;fontColor=#333333;strokeWidth=4;" parent="1" vertex="1">
                    <mxGeometry x="320" y="80" width="105" height="160" as="geometry"/>
                </mxCell>
                <mxCell id="l89OHFWNrWHoMT3OUBKf-10" value="" style="rounded=1;whiteSpace=wrap;html=1;strokeWidth=4;fillColor=#f5f5f5;strokeColor=#666666;fontColor=#333333;" parent="1" vertex="1">
                    <mxGeometry x="554" y="80" width="336" height="160" as="geometry"/>
                </mxCell>
                <mxCell id="l89OHFWNrWHoMT3OUBKf-13" value="&lt;b&gt;Server Inbound Task&lt;/b&gt;" style="rounded=1;whiteSpace=wrap;html=1;fillColor=#dae8fc;strokeColor=#6c8ebf;" parent="1" vertex="1">
                    <mxGeometry x="700" y="-225" width="210" height="180" as="geometry"/>
                </mxCell>
                <mxCell id="l89OHFWNrWHoMT3OUBKf-18" value="&lt;b&gt;Outbound Queue&lt;/b&gt;" style="text;html=1;strokeColor=none;fillColor=none;align=center;verticalAlign=middle;whiteSpace=wrap;rounded=0;" parent="1" vertex="1">
                    <mxGeometry x="800" y="85" width="80" height="30" as="geometry"/>
                </mxCell>
                <mxCell id="l89OHFWNrWHoMT3OUBKf-19" value="&lt;b&gt;&lt;font style=&quot;font-size: 15px&quot;&gt;Server Outbound Task&lt;/font&gt;&lt;/b&gt;" style="text;html=1;strokeColor=none;fillColor=none;align=center;verticalAlign=middle;whiteSpace=wrap;rounded=0;" parent="1" vertex="1">
                    <mxGeometry x="560" y="86.5" width="170" height="20" as="geometry"/>
                </mxCell>
                <mxCell id="TSie4cTHzgcR8lznAA3S-2" value="&lt;b&gt;&lt;font style=&quot;font-size: 17px&quot;&gt;Client&lt;/font&gt;&lt;/b&gt;" style="text;html=1;strokeColor=none;fillColor=none;align=center;verticalAlign=middle;whiteSpace=wrap;rounded=0;strokeWidth=2;" parent="1" vertex="1">
                    <mxGeometry x="350" y="80" width="40" height="20" as="geometry"/>
                </mxCell>
                <mxCell id="TSie4cTHzgcR8lznAA3S-27" value="&lt;font color=&quot;#ff0000&quot;&gt;&lt;b&gt;Channel N&lt;/b&gt;&lt;/font&gt;" style="rounded=1;whiteSpace=wrap;html=1;fillColor=#e1d5e7;strokeColor=#9673a6;strokeWidth=2;" parent="1" vertex="1">
                    <mxGeometry x="285" y="-90" width="90" height="20" as="geometry"/>
                </mxCell>
                <mxCell id="TSie4cTHzgcR8lznAA3S-29" value="&lt;b&gt;Redis&lt;/b&gt;" style="text;html=1;strokeColor=none;fillColor=none;align=center;verticalAlign=middle;whiteSpace=wrap;rounded=0;" parent="1" vertex="1">
                    <mxGeometry x="370" y="-220" width="40" height="20" as="geometry"/>
                </mxCell>
                <mxCell id="TSie4cTHzgcR8lznAA3S-31" value="" style="ellipse;whiteSpace=wrap;html=1;aspect=fixed;fillColor=#fff2cc;strokeColor=#d6b656;" parent="1" vertex="1">
                    <mxGeometry x="430" y="-155" width="45" height="45" as="geometry"/>
                </mxCell>
                <mxCell id="s7BTsAr3YuJHcux3Ynn8-1" value="&lt;font color=&quot;#ff0000&quot;&gt;&lt;b&gt;Channel 0&lt;/b&gt;&lt;/font&gt;" style="rounded=1;whiteSpace=wrap;html=1;fillColor=#e1d5e7;strokeColor=#9673a6;strokeWidth=2;" parent="1" vertex="1">
                    <mxGeometry x="285" y="-175" width="90" height="20" as="geometry"/>
                </mxCell>
                <mxCell id="s7BTsAr3YuJHcux3Ynn8-2" value="&lt;font color=&quot;#ff0000&quot;&gt;&lt;b&gt;Channel 1&lt;/b&gt;&lt;/font&gt;" style="rounded=1;whiteSpace=wrap;html=1;fillColor=#e1d5e7;strokeColor=#9673a6;strokeWidth=2;" parent="1" vertex="1">
                    <mxGeometry x="285" y="-155" width="90" height="20" as="geometry"/>
                </mxCell>
                <mxCell id="s7BTsAr3YuJHcux3Ynn8-3" value="" style="endArrow=none;dashed=1;html=1;exitX=0.5;exitY=1;exitDx=0;exitDy=0;entryX=0.5;entryY=0;entryDx=0;entryDy=0;" parent="1" source="s7BTsAr3YuJHcux3Ynn8-2" target="TSie4cTHzgcR8lznAA3S-27" edge="1">
                    <mxGeometry width="50" height="50" relative="1" as="geometry">
                        <mxPoint x="-325" y="280" as="sourcePoint"/>
                        <mxPoint x="-275" y="230" as="targetPoint"/>
                    </mxGeometry>
                </mxCell>
                <mxCell id="s7BTsAr3YuJHcux3Ynn8-5" value="" style="edgeStyle=elbowEdgeStyle;elbow=horizontal;endArrow=classic;html=1;exitX=1;exitY=0.5;exitDx=0;exitDy=0;entryX=0;entryY=0;entryDx=0;entryDy=0;strokeWidth=2;fillColor=#d5e8d4;strokeColor=#82b366;" parent="1" source="s7BTsAr3YuJHcux3Ynn8-1" target="TSie4cTHzgcR8lznAA3S-31" edge="1">
                    <mxGeometry width="50" height="50" relative="1" as="geometry">
                        <mxPoint x="-45" y="320" as="sourcePoint"/>
                        <mxPoint x="435" y="-125" as="targetPoint"/>
                        <Array as="points"/>
                    </mxGeometry>
                </mxCell>
                <mxCell id="s7BTsAr3YuJHcux3Ynn8-6" value="" style="edgeStyle=elbowEdgeStyle;elbow=horizontal;endArrow=classic;html=1;exitX=1;exitY=0.5;exitDx=0;exitDy=0;strokeWidth=2;fillColor=#d5e8d4;strokeColor=#82b366;" parent="1" source="s7BTsAr3YuJHcux3Ynn8-2" edge="1">
                    <mxGeometry width="50" height="50" relative="1" as="geometry">
                        <mxPoint x="385" y="-155" as="sourcePoint"/>
                        <mxPoint x="430" y="-132" as="targetPoint"/>
                        <Array as="points">
                            <mxPoint x="405" y="-145"/>
                        </Array>
                    </mxGeometry>
                </mxCell>
                <mxCell id="s7BTsAr3YuJHcux3Ynn8-7" value="" style="edgeStyle=elbowEdgeStyle;elbow=horizontal;endArrow=classic;html=1;exitX=1;exitY=0.75;exitDx=0;exitDy=0;strokeWidth=2;fillColor=#d5e8d4;strokeColor=#82b366;" parent="1" source="TSie4cTHzgcR8lznAA3S-27" edge="1">
                    <mxGeometry width="50" height="50" relative="1" as="geometry">
                        <mxPoint x="385" y="-135" as="sourcePoint"/>
                        <mxPoint x="437" y="-120" as="targetPoint"/>
                        <Array as="points">
                            <mxPoint x="415" y="-135"/>
                        </Array>
                    </mxGeometry>
                </mxCell>
                <mxCell id="s7BTsAr3YuJHcux3Ynn8-10" value="" style="rounded=1;whiteSpace=wrap;html=1;strokeWidth=2;fillColor=#d5e8d4;strokeColor=#82b366;" parent="1" vertex="1">
                    <mxGeometry x="554" y="150" width="45" height="60" as="geometry"/>
                </mxCell>
                <mxCell id="s7BTsAr3YuJHcux3Ynn8-11" value="" style="rounded=1;whiteSpace=wrap;html=1;strokeWidth=2;fillColor=#f8cecc;strokeColor=#b85450;" parent="1" vertex="1">
                    <mxGeometry x="375" y="150" width="50" height="60" as="geometry"/>
                </mxCell>
                <mxCell id="s7BTsAr3YuJHcux3Ynn8-14" value="" style="edgeStyle=elbowEdgeStyle;elbow=vertical;endArrow=classic;html=1;strokeWidth=3;exitX=0.5;exitY=1;exitDx=0;exitDy=0;fillColor=#f8cecc;strokeColor=#b85450;entryX=1;entryY=0.5;entryDx=0;entryDy=0;" parent="1" source="s7BTsAr3YuJHcux3Ynn8-12" target="s7BTsAr3YuJHcux3Ynn8-10" edge="1">
                    <mxGeometry width="50" height="50" relative="1" as="geometry">
                        <mxPoint x="254" y="520" as="sourcePoint"/>
                        <mxPoint x="624" y="180" as="targetPoint"/>
                        <Array as="points">
                            <mxPoint x="684" y="180"/>
                        </Array>
                    </mxGeometry>
                </mxCell>
                <mxCell id="s7BTsAr3YuJHcux3Ynn8-15" value="" style="ellipse;whiteSpace=wrap;html=1;aspect=fixed;fillColor=#fff2cc;strokeColor=#d6b656;" parent="1" vertex="1">
                    <mxGeometry x="576.5" y="-20" width="33" height="33" as="geometry"/>
                </mxCell>
                <mxCell id="s7BTsAr3YuJHcux3Ynn8-18" value="" style="rounded=1;whiteSpace=wrap;html=1;strokeWidth=2;" parent="1" vertex="1">
                    <mxGeometry x="425" y="150" width="130" height="60" as="geometry"/>
                </mxCell>
                <mxCell id="s7BTsAr3YuJHcux3Ynn8-19" value="" style="endArrow=classic;html=1;strokeWidth=2;entryX=1;entryY=0.619;entryDx=0;entryDy=0;entryPerimeter=0;dashed=1;exitX=1;exitY=0.5;exitDx=0;exitDy=0;" parent="1" source="s7BTsAr3YuJHcux3Ynn8-18" target="TSie4cTHzgcR8lznAA3S-13" edge="1">
                    <mxGeometry width="50" height="50" relative="1" as="geometry">
                        <mxPoint x="495" y="179" as="sourcePoint"/>
                        <mxPoint x="305" y="470" as="targetPoint"/>
                    </mxGeometry>
                </mxCell>
                <mxCell id="s7BTsAr3YuJHcux3Ynn8-20" value="" style="edgeStyle=elbowEdgeStyle;elbow=horizontal;endArrow=classic;html=1;exitX=1;exitY=0.5;exitDx=0;exitDy=0;strokeWidth=3;fillColor=#d5e8d4;strokeColor=#82b366;entryX=0.278;entryY=0.022;entryDx=0;entryDy=0;entryPerimeter=0;" parent="1" source="TSie4cTHzgcR8lznAA3S-31" target="s7BTsAr3YuJHcux3Ynn8-15" edge="1">
                    <mxGeometry width="50" height="50" relative="1" as="geometry">
                        <mxPoint x="385" y="-65" as="sourcePoint"/>
                        <mxPoint x="583" y="-23" as="targetPoint"/>
                        <Array as="points">
                            <mxPoint x="586" y="-70"/>
                        </Array>
                    </mxGeometry>
                </mxCell>
                <mxCell id="s7BTsAr3YuJHcux3Ynn8-21" value="" style="edgeStyle=elbowEdgeStyle;elbow=horizontal;endArrow=classic;html=1;strokeWidth=3;fillColor=#d5e8d4;strokeColor=#82b366;" parent="1" edge="1">
                    <mxGeometry width="50" height="50" relative="1" as="geometry">
                        <mxPoint x="670" y="-140" as="sourcePoint"/>
                        <mxPoint x="590" y="-20" as="targetPoint"/>
                        <Array as="points">
                            <mxPoint x="590" y="-80"/>
                        </Array>
                    </mxGeometry>
                </mxCell>
                <mxCell id="s7BTsAr3YuJHcux3Ynn8-24" value="&lt;b&gt;Websocket&lt;/b&gt;" style="text;html=1;strokeColor=none;fillColor=none;align=center;verticalAlign=middle;whiteSpace=wrap;rounded=0;dashed=1;" parent="1" vertex="1">
                    <mxGeometry x="470" y="125" width="40" height="20" as="geometry"/>
                </mxCell>
                <mxCell id="s7BTsAr3YuJHcux3Ynn8-25" value="" style="rounded=1;whiteSpace=wrap;html=1;strokeWidth=2;fillColor=#dae8fc;strokeColor=#6c8ebf;" parent="1" vertex="1">
                    <mxGeometry x="445" y="160" width="30" height="10" as="geometry"/>
                </mxCell>
                <mxCell id="s7BTsAr3YuJHcux3Ynn8-27" value="" style="rounded=1;whiteSpace=wrap;html=1;strokeWidth=2;fillColor=#f8cecc;strokeColor=#b85450;" parent="1" vertex="1">
                    <mxGeometry x="480" y="160" width="30" height="10" as="geometry"/>
                </mxCell>
                <mxCell id="s7BTsAr3YuJHcux3Ynn8-28" value="" style="rounded=1;whiteSpace=wrap;html=1;strokeWidth=2;fillColor=#dae8fc;strokeColor=#6c8ebf;" parent="1" vertex="1">
                    <mxGeometry x="516.5" y="160" width="30" height="10" as="geometry"/>
                </mxCell>
                <mxCell id="s7BTsAr3YuJHcux3Ynn8-31" value="" style="edgeStyle=elbowEdgeStyle;elbow=vertical;endArrow=classic;html=1;strokeWidth=4;exitX=0.5;exitY=1;exitDx=0;exitDy=0;fillColor=#d5e8d4;strokeColor=#82b366;entryX=0.5;entryY=0;entryDx=0;entryDy=0;" parent="1" source="s7BTsAr3YuJHcux3Ynn8-15" target="l89OHFWNrWHoMT3OUBKf-4" edge="1">
                    <mxGeometry width="50" height="50" relative="1" as="geometry">
                        <mxPoint x="280" y="310" as="sourcePoint"/>
                        <mxPoint x="777" y="82" as="targetPoint"/>
                    </mxGeometry>
                </mxCell>
                <mxCell id="s7BTsAr3YuJHcux3Ynn8-36" value="" style="rounded=1;whiteSpace=wrap;html=1;strokeWidth=2;fillColor=#dae8fc;strokeColor=#6c8ebf;" parent="1" vertex="1">
                    <mxGeometry x="614.5" y="-165" width="30" height="10" as="geometry"/>
                </mxCell>
                <mxCell id="s7BTsAr3YuJHcux3Ynn8-37" value="" style="rounded=1;whiteSpace=wrap;html=1;strokeWidth=2;fillColor=#f8cecc;strokeColor=#b85450;" parent="1" vertex="1">
                    <mxGeometry x="529" y="-155" width="30" height="10" as="geometry"/>
                </mxCell>
                <mxCell id="s7BTsAr3YuJHcux3Ynn8-40" value="" style="rounded=1;whiteSpace=wrap;html=1;strokeWidth=2;fillColor=#dae8fc;strokeColor=#6c8ebf;" parent="1" vertex="1">
                    <mxGeometry x="630" y="30" width="30" height="10" as="geometry"/>
                </mxCell>
                <mxCell id="s7BTsAr3YuJHcux3Ynn8-41" value="" style="rounded=1;whiteSpace=wrap;html=1;strokeWidth=2;fillColor=#f8cecc;strokeColor=#b85450;" parent="1" vertex="1">
                    <mxGeometry x="670" y="30" width="30" height="10" as="geometry"/>
                </mxCell>
                <mxCell id="s7BTsAr3YuJHcux3Ynn8-42" value="" style="group" parent="1" vertex="1" connectable="0">
                    <mxGeometry x="740" y="80" width="60" height="52.5" as="geometry"/>
                </mxCell>
                <mxCell id="l89OHFWNrWHoMT3OUBKf-4" value="" style="rounded=1;whiteSpace=wrap;html=1;fillColor=#e1d5e7;strokeColor=#9673a6;strokeWidth=3;" parent="s7BTsAr3YuJHcux3Ynn8-42" vertex="1">
                    <mxGeometry width="60" height="15" as="geometry"/>
                </mxCell>
                <mxCell id="l89OHFWNrWHoMT3OUBKf-5" value="" style="rounded=1;whiteSpace=wrap;html=1;fillColor=#e1d5e7;strokeColor=#9673a6;strokeWidth=3;" parent="s7BTsAr3YuJHcux3Ynn8-42" vertex="1">
                    <mxGeometry y="12.5" width="60" height="15" as="geometry"/>
                </mxCell>
                <mxCell id="l89OHFWNrWHoMT3OUBKf-6" value="" style="rounded=1;whiteSpace=wrap;html=1;fillColor=#e1d5e7;strokeColor=#9673a6;strokeWidth=3;" parent="s7BTsAr3YuJHcux3Ynn8-42" vertex="1">
                    <mxGeometry y="25" width="60" height="15" as="geometry"/>
                </mxCell>
                <mxCell id="s7BTsAr3YuJHcux3Ynn8-12" value="" style="rounded=1;whiteSpace=wrap;html=1;fillColor=#e1d5e7;strokeColor=#9673a6;strokeWidth=3;" parent="s7BTsAr3YuJHcux3Ynn8-42" vertex="1">
                    <mxGeometry y="37.5" width="60" height="15" as="geometry"/>
                </mxCell>
            </root>
        </mxGraphModel>
    </diagram>
</mxfile>